<?xml version="1.0" standalone="no"?>
<!DOCTYPE svg PUBLIC "-//W3C//DTD SVG 20010904//EN"
 "http://www.w3.org/TR/2001/REC-SVG-20010904/DTD/svg10.dtd">
<svg version="1.0" xmlns="http://www.w3.org/2000/svg"
 width="1136.000000pt" height="1136.000000pt" viewBox="0 0 1136.000000 1136.000000"
 preserveAspectRatio="xMidYMid meet">
<metadata>
Created by potrace 1.14, written by Peter Selinger 2001-2017
</metadata>
<g transform="translate(0.000000,1136.000000) scale(0.100000,-0.100000)"
fill="#000000" stroke="none">
<path d="M1400 5680 l0 -5680 987 2 988 3 0 2180 0 2180 1101 2 1102 3 28 -58
c15 -31 32 -60 37 -63 5 -3 8 -8 7 -10 -3 -8 14 -45 32 -68 10 -13 18 -32 18
-42 0 -11 3 -19 8 -19 4 0 20 -29 37 -65 16 -36 33 -65 37 -65 4 0 8 -8 8 -18
0 -10 4 -22 9 -28 9 -9 47 -81 188 -354 42 -80 94 -181 118 -225 23 -44 77
-147 120 -230 115 -223 177 -339 188 -352 5 -7 6 -13 3 -13 -4 0 1 -12 11 -27
10 -16 42 -73 70 -128 29 -55 72 -138 96 -185 25 -47 67 -128 93 -180 27 -52
52 -96 56 -98 5 -2 8 -11 8 -21 0 -9 4 -21 9 -27 9 -10 57 -100 196 -369 48
-93 105 -201 125 -240 21 -38 64 -122 96 -185 32 -63 62 -116 66 -118 5 -2 8
-12 8 -22 0 -10 3 -20 8 -22 6 -3 29 -45 136 -253 22 -44 44 -82 48 -83 5 -2
8 -9 8 -15 0 -12 40 -97 50 -107 3 -3 21 -36 41 -75 111 -218 155 -300 161
-303 5 -2 8 -10 8 -17 0 -8 12 -36 28 -62 15 -26 47 -87 72 -135 l44 -88 1058
0 1058 0 0 52 c0 45 -9 68 -74 187 -41 75 -88 162 -104 194 -16 31 -35 64 -42
72 -7 8 -9 15 -4 15 5 0 4 4 -1 8 -6 4 -26 36 -44 72 -19 36 -43 81 -54 100
-11 19 -45 82 -75 140 -31 58 -63 119 -73 135 -9 17 -41 75 -69 130 -29 55
-59 107 -67 117 -8 9 -15 23 -17 31 -1 8 -9 25 -17 38 -8 13 -32 58 -54 99
-21 41 -42 77 -47 78 -4 2 -8 12 -8 22 0 10 -6 25 -13 32 -7 7 -26 40 -44 73
-71 136 -83 159 -94 171 -6 8 -8 14 -4 14 4 0 3 6 -3 13 -5 6 -22 33 -36 60
-14 26 -38 68 -52 95 -14 26 -31 53 -36 60 -6 6 -7 12 -4 12 4 0 -1 12 -12 28
-10 15 -28 45 -39 67 -41 79 -70 133 -86 156 -10 13 -17 31 -17 41 0 10 -4 18
-9 18 -5 0 -14 12 -20 28 -6 15 -33 68 -61 117 -28 50 -58 106 -68 125 -9 19
-19 37 -22 40 -3 3 -14 25 -25 49 -11 24 -24 49 -30 55 -5 6 -22 36 -38 66
-15 30 -34 66 -42 80 -34 59 -215 400 -215 406 0 4 -6 15 -14 23 -7 9 -37 61
-66 116 -28 55 -65 124 -81 154 -16 29 -50 92 -76 140 -26 47 -60 113 -77 146
-17 33 -33 62 -36 65 -3 3 -17 28 -30 55 -14 28 -27 52 -30 55 -3 3 -27 48
-54 100 -27 52 -52 100 -56 105 -4 6 -27 48 -52 95 -51 96 -89 166 -134 248
-17 32 -52 97 -77 146 l-47 89 72 32 c133 58 335 162 448 231 106 65 217 138
265 174 18 14 46 34 61 45 15 11 44 34 65 50 20 17 55 45 77 62 38 31 80 70
189 174 47 45 161 168 202 219 11 14 26 32 34 40 7 8 28 35 47 60 19 25 37 47
41 50 11 9 159 238 166 257 3 10 10 20 14 23 11 8 134 256 144 290 1 3 8 21
17 41 27 61 109 310 124 374 1 6 9 40 18 76 17 75 26 115 30 144 2 11 6 34 9
50 4 17 9 48 12 70 3 23 8 52 10 65 3 14 7 48 9 75 3 28 8 79 11 115 26 290
18 690 -19 960 -4 25 -9 65 -13 90 -3 25 -8 54 -10 65 -2 11 -6 34 -9 50 -3
17 -12 62 -20 100 -9 39 -18 80 -20 92 -11 55 -80 278 -116 373 -21 58 -40
111 -40 118 -1 6 -6 12 -11 12 -6 0 -8 3 -5 6 6 5 -127 284 -141 294 -6 5 -20
28 -45 75 -25 46 -89 140 -97 143 -5 2 -9 8 -9 13 0 12 -133 180 -198 251 -61
66 -172 178 -172 174 0 -2 -17 13 -37 33 -21 20 -58 52 -82 71 -24 19 -48 40
-55 45 -6 6 -27 22 -46 35 -19 13 -41 30 -48 37 -7 7 -26 20 -42 30 -17 9 -30
21 -30 25 0 4 -4 8 -9 8 -8 0 -124 72 -157 97 -32 24 -297 160 -399 205 -49
21 -99 43 -110 48 -36 17 -190 72 -202 73 -7 0 -13 5 -13 10 0 6 -3 8 -6 5 -3
-4 -38 5 -77 18 -62 21 -302 87 -362 100 -11 2 -31 6 -45 9 -79 18 -97 22
-195 40 -144 26 -143 26 -252 40 -21 2 -55 7 -76 10 -21 4 -60 8 -85 10 -26 2
-47 4 -47 5 0 3 -64 10 -140 15 -44 3 -111 8 -150 12 -38 3 -1066 7 -2282 10
l-2213 4 0 -5681z m4330 4077 c30 -4 80 -9 110 -12 30 -3 64 -8 75 -10 11 -2
37 -7 58 -10 34 -4 165 -30 207 -41 117 -28 314 -95 382 -130 15 -8 29 -14 30
-12 2 1 22 -11 46 -25 23 -15 42 -25 42 -23 0 5 127 -76 147 -93 7 -6 15 -11
18 -11 4 0 12 -6 19 -12 7 -7 31 -26 52 -43 63 -49 177 -166 230 -237 78 -104
88 -118 112 -162 37 -66 66 -121 67 -126 1 -3 11 -25 22 -50 18 -39 31 -71 38
-90 1 -3 7 -17 13 -32 13 -31 44 -135 48 -158 1 -8 7 -31 13 -50 18 -57 63
-349 61 -397 0 -7 0 -21 1 -30 5 -164 -2 -409 -16 -493 -10 -69 -21 -126 -24
-137 -1 -2 -2 -6 -3 -10 -1 -5 -5 -24 -10 -43 -5 -19 -10 -42 -12 -51 -24 -97
-88 -263 -133 -343 -19 -34 -39 -72 -46 -86 -6 -14 -14 -27 -17 -30 -4 -3 -23
-30 -43 -60 -51 -78 -79 -111 -187 -220 -87 -88 -275 -240 -288 -232 -2 2 -8
0 -11 -5 -9 -12 -80 -56 -121 -75 -19 -9 -75 -35 -124 -57 -48 -23 -96 -43
-105 -44 -9 -1 -20 -5 -26 -8 -11 -7 -69 -26 -101 -34 -10 -3 -53 -14 -94 -25
-41 -11 -88 -23 -105 -26 -16 -2 -37 -7 -45 -9 -8 -2 -31 -6 -50 -9 -19 -2
-64 -9 -100 -15 -81 -13 -190 -22 -296 -26 -45 -1 -86 -5 -93 -9 -6 -4 -11 -4
-11 1 0 9 -76 10 -86 1 -3 -3 -18 -2 -34 2 -16 4 -30 6 -33 4 -4 -4 -43 -5
-107 -3 -8 0 -35 0 -60 0 -25 0 -53 0 -62 0 -10 0 -42 0 -70 -1 -29 0 -65 2
-81 4 -15 2 -30 0 -32 -5 -3 -4 -18 -4 -33 0 -15 5 -37 5 -49 0 -12 -4 -25 -5
-27 0 -5 8 -71 5 -86 -4 -6 -3 -10 -3 -10 2 0 7 -85 9 -115 3 -5 -1 -14 -1
-20 0 -5 1 -37 1 -70 1 -33 0 -85 0 -115 -1 -30 0 -67 2 -83 4 -15 2 -30 0
-32 -5 -3 -4 -18 -4 -33 0 -15 5 -37 5 -49 0 -12 -4 -25 -5 -27 0 -5 8 -71 5
-86 -4 -6 -3 -10 -3 -10 2 0 7 -85 9 -115 3 -5 -1 -14 -1 -20 0 -5 1 -37 1
-70 1 -33 0 -85 0 -115 -1 -30 0 -67 2 -83 4 -15 2 -30 0 -32 -5 -3 -4 -18 -4
-33 0 -15 5 -37 5 -49 0 -12 -4 -25 -5 -27 0 -5 7 -70 6 -84 -2 -4 -3 -16 -1
-27 3 -20 7 -20 15 -19 1901 1 1042 2 1898 3 1902 1 9 2266 3 2351 -6z"/>
</g>
</svg>
